<?xml version="1.0" encoding="UTF-8"?>
<svg id="Layer_1" xmlns="http://www.w3.org/2000/svg" width="15" height="14" xmlns:xlink="http://www.w3.org/1999/xlink" viewBox="0 0 15 14">
    <defs>
    <style>.cls-1{fill: #000;}</style>
    </defs>
    <path class="cls-1" d="m5.7,6.99h-1.93v-.94c-.1-.97.6-1.85,1.58-1.95.12-.01.24-.01.35,0V.24C2.6.15,0,2.59-.09,5.7c0,.11,0,.22,0,.33v6.75c0,.53.43.96.96.96h4.82c.53,0,.96-.43.96-.96v-4.82c0-.53-.43-.96-.96-.96"/>
    <path class="cls-1" d="m14.38,6.99h-1.93v-.94c-.1-.97.6-1.85,1.58-1.95.12-.01.24-.01.35,0V.24c-3.1-.09-5.69,2.35-5.79,5.46,0,.11,0,.22,0,.33v6.75c0,.53.43.96.96.96h4.82c.53,0,.96-.43.96-.96v-4.82c0-.53-.43-.96-.96-.96"/>
</svg>